<svg width="220" height="26" viewBox="0 0 220 26" fill="none" xmlns="http://www.w3.org/2000/svg">
    <rect y="0.181885" width="220" height="25" rx="12.5" fill="#293783"/>
    <path d="M28.5929 18.19C27.0089 18.19 25.6589 17.974 24.5429 17.542C23.4389 17.11 22.5929 16.486 22.0049 15.67C21.4169 14.842 21.1229 13.846 21.1229 12.682C21.1229 11.494 21.4169 10.492 22.0049 9.676C22.5929 8.86 23.4389 8.236 24.5429 7.804C25.6589 7.372 27.0089 7.156 28.5929 7.156C28.6169 7.156 28.6709 7.156 28.7549 7.156C28.8509 7.156 28.9409 7.156 29.0249 7.156C29.1209 7.156 29.1749 7.156 29.1869 7.156C30.7589 7.156 32.0969 7.372 33.2009 7.804C34.3049 8.236 35.1449 8.866 35.7209 9.694C36.2969 10.51 36.5849 11.506 36.5849 12.682C36.5849 13.834 36.2969 14.824 35.7209 15.652C35.1569 16.48 34.3289 17.11 33.2369 17.542C32.1569 17.974 30.8369 18.19 29.2769 18.19C29.2529 18.19 29.1869 18.19 29.0789 18.19C28.9829 18.19 28.8809 18.19 28.7729 18.19C28.6769 18.19 28.6169 18.19 28.5929 18.19ZM28.8269 16.372C28.8509 16.372 28.8869 16.372 28.9349 16.372C28.9829 16.372 29.0129 16.372 29.0249 16.372C30.1889 16.36 31.1609 16.216 31.9409 15.94C32.7329 15.664 33.3269 15.256 33.7229 14.716C34.1309 14.164 34.3349 13.48 34.3349 12.664C34.3349 11.848 34.1309 11.17 33.7229 10.63C33.3149 10.09 32.7209 9.682 31.9409 9.406C31.1609 9.13 30.2009 8.992 29.0609 8.992C29.0489 8.992 29.0129 8.992 28.9529 8.992C28.8929 8.992 28.8509 8.992 28.8269 8.992C27.6389 8.992 26.6369 9.13 25.8209 9.406C25.0169 9.67 24.4109 10.078 24.0029 10.63C23.6069 11.17 23.4089 11.854 23.4089 12.682C23.4089 13.51 23.6189 14.2 24.0389 14.752C24.4709 15.292 25.0889 15.7 25.8929 15.976C26.6969 16.24 27.6749 16.372 28.8269 16.372ZM27.7829 19.504V5.896H29.9429V19.504H27.7829ZM43.0743 19.126C42.0903 19.126 41.2143 18.916 40.4463 18.496C39.6783 18.064 39.0723 17.476 38.6283 16.732C38.1843 15.988 37.9623 15.142 37.9623 14.194C37.9623 13.234 38.1843 12.388 38.6283 11.656C39.0723 10.912 39.6783 10.33 40.4463 9.91C41.2143 9.49 42.0903 9.28 43.0743 9.28C44.0703 9.28 44.9523 9.49 45.7203 9.91C46.5003 10.33 47.1063 10.906 47.5383 11.638C47.9823 12.37 48.2043 13.222 48.2043 14.194C48.2043 15.142 47.9823 15.988 47.5383 16.732C47.1063 17.476 46.5003 18.064 45.7203 18.496C44.9523 18.916 44.0703 19.126 43.0743 19.126ZM43.0743 17.2C43.6263 17.2 44.1183 17.08 44.5503 16.84C44.9823 16.6 45.3183 16.252 45.5583 15.796C45.8103 15.34 45.9363 14.806 45.9363 14.194C45.9363 13.57 45.8103 13.036 45.5583 12.592C45.3183 12.136 44.9823 11.788 44.5503 11.548C44.1183 11.308 43.6323 11.188 43.0923 11.188C42.5403 11.188 42.0483 11.308 41.6163 11.548C41.1963 11.788 40.8603 12.136 40.6083 12.592C40.3563 13.036 40.2303 13.57 40.2303 14.194C40.2303 14.806 40.3563 15.34 40.6083 15.796C40.8603 16.252 41.1963 16.6 41.6163 16.84C42.0483 17.08 42.5343 17.2 43.0743 17.2ZM52.0735 19V10.756L52.5955 11.296H48.6895V9.388H57.6895V11.296H53.8015L54.3235 10.756V19H52.0735ZM63.1837 19.126C62.1997 19.126 61.3237 18.916 60.5557 18.496C59.7877 18.064 59.1817 17.476 58.7377 16.732C58.2937 15.988 58.0717 15.142 58.0717 14.194C58.0717 13.234 58.2937 12.388 58.7377 11.656C59.1817 10.912 59.7877 10.33 60.5557 9.91C61.3237 9.49 62.1997 9.28 63.1837 9.28C64.1797 9.28 65.0617 9.49 65.8297 9.91C66.6097 10.33 67.2157 10.906 67.6477 11.638C68.0917 12.37 68.3137 13.222 68.3137 14.194C68.3137 15.142 68.0917 15.988 67.6477 16.732C67.2157 17.476 66.6097 18.064 65.8297 18.496C65.0617 18.916 64.1797 19.126 63.1837 19.126ZM63.1837 17.2C63.7357 17.2 64.2277 17.08 64.6597 16.84C65.0917 16.6 65.4277 16.252 65.6677 15.796C65.9197 15.34 66.0457 14.806 66.0457 14.194C66.0457 13.57 65.9197 13.036 65.6677 12.592C65.4277 12.136 65.0917 11.788 64.6597 11.548C64.2277 11.308 63.7417 11.188 63.2017 11.188C62.6497 11.188 62.1577 11.308 61.7257 11.548C61.3057 11.788 60.9697 12.136 60.7177 12.592C60.4657 13.036 60.3397 13.57 60.3397 14.194C60.3397 14.806 60.4657 15.34 60.7177 15.796C60.9697 16.252 61.3057 16.6 61.7257 16.84C62.1577 17.08 62.6437 17.2 63.1837 17.2ZM70.5364 19V9.388H77.9164V11.296H72.2644L72.7864 10.792V19H70.5364ZM84.882 19.126C84.102 19.126 83.388 18.946 82.74 18.586C82.104 18.226 81.594 17.686 81.21 16.966C80.838 16.234 80.652 15.31 80.652 14.194C80.652 13.066 80.832 12.142 81.192 11.422C81.564 10.702 82.068 10.168 82.704 9.82C83.34 9.46 84.066 9.28 84.882 9.28C85.83 9.28 86.664 9.484 87.384 9.892C88.116 10.3 88.692 10.87 89.112 11.602C89.544 12.334 89.76 13.198 89.76 14.194C89.76 15.19 89.544 16.06 89.112 16.804C88.692 17.536 88.116 18.106 87.384 18.514C86.664 18.922 85.83 19.126 84.882 19.126ZM79.554 22.492V9.388H81.696V11.656L81.624 14.212L81.804 16.768V22.492H79.554ZM84.63 17.2C85.17 17.2 85.65 17.08 86.07 16.84C86.502 16.6 86.844 16.252 87.096 15.796C87.348 15.34 87.474 14.806 87.474 14.194C87.474 13.57 87.348 13.036 87.096 12.592C86.844 12.136 86.502 11.788 86.07 11.548C85.65 11.308 85.17 11.188 84.63 11.188C84.09 11.188 83.604 11.308 83.172 11.548C82.74 11.788 82.398 12.136 82.146 12.592C81.894 13.036 81.768 13.57 81.768 14.194C81.768 14.806 81.894 15.34 82.146 15.796C82.398 16.252 82.74 16.6 83.172 16.84C83.604 17.08 84.09 17.2 84.63 17.2ZM97.7083 19V17.056L97.5823 16.642V13.24C97.5823 12.58 97.3843 12.07 96.9883 11.71C96.5923 11.338 95.9923 11.152 95.1883 11.152C94.6483 11.152 94.1143 11.236 93.5863 11.404C93.0703 11.572 92.6323 11.806 92.2723 12.106L91.3903 10.468C91.9063 10.072 92.5183 9.778 93.2263 9.586C93.9463 9.382 94.6903 9.28 95.4583 9.28C96.8503 9.28 97.9243 9.616 98.6803 10.288C99.4483 10.948 99.8323 11.974 99.8323 13.366V19H97.7083ZM94.6843 19.126C93.9643 19.126 93.3343 19.006 92.7943 18.766C92.2543 18.514 91.8343 18.172 91.5343 17.74C91.2463 17.296 91.1023 16.798 91.1023 16.246C91.1023 15.706 91.2283 15.22 91.4803 14.788C91.7443 14.356 92.1703 14.014 92.7583 13.762C93.3463 13.51 94.1263 13.384 95.0983 13.384H97.8883V14.878H95.2603C94.4923 14.878 93.9763 15.004 93.7123 15.256C93.4483 15.496 93.3163 15.796 93.3163 16.156C93.3163 16.564 93.4783 16.888 93.8023 17.128C94.1263 17.368 94.5763 17.488 95.1523 17.488C95.7043 17.488 96.1963 17.362 96.6283 17.11C97.0723 16.858 97.3903 16.486 97.5823 15.994L97.9603 17.344C97.7443 17.908 97.3543 18.346 96.7903 18.658C96.2383 18.97 95.5363 19.126 94.6843 19.126ZM108.718 19.18C108.706 19.18 108.652 19.18 108.556 19.18C108.472 19.18 108.388 19.18 108.304 19.18C108.232 19.18 108.184 19.18 108.16 19.18C106.132 19.156 104.56 18.718 103.444 17.866C102.328 17.002 101.77 15.772 101.77 14.176C101.77 12.592 102.328 11.38 103.444 10.54C104.56 9.7 106.15 9.268 108.214 9.244C108.238 9.244 108.286 9.244 108.358 9.244C108.442 9.244 108.52 9.244 108.592 9.244C108.676 9.244 108.724 9.244 108.736 9.244C110.812 9.244 112.426 9.67 113.578 10.522C114.742 11.362 115.324 12.58 115.324 14.176C115.324 15.784 114.742 17.02 113.578 17.884C112.426 18.748 110.806 19.18 108.718 19.18ZM108.646 17.308C109.666 17.308 110.506 17.194 111.166 16.966C111.826 16.726 112.318 16.378 112.642 15.922C112.966 15.454 113.128 14.872 113.128 14.176C113.128 13.492 112.966 12.928 112.642 12.484C112.318 12.028 111.826 11.692 111.166 11.476C110.506 11.248 109.666 11.134 108.646 11.134C108.622 11.134 108.562 11.134 108.466 11.134C108.382 11.134 108.328 11.134 108.304 11.134C107.308 11.134 106.492 11.254 105.856 11.494C105.22 11.722 104.746 12.058 104.434 12.502C104.134 12.946 103.984 13.504 103.984 14.176C103.984 14.86 104.134 15.43 104.434 15.886C104.746 16.342 105.22 16.69 105.856 16.93C106.504 17.17 107.32 17.296 108.304 17.308C108.328 17.308 108.382 17.308 108.466 17.308C108.562 17.308 108.622 17.308 108.646 17.308ZM107.476 22.492V5.644H109.6V22.492H107.476ZM117.505 19V9.388H119.755V15.724L125.065 9.388H127.117V19H124.867V12.664L119.575 19H117.505ZM130.144 19V9.388H132.394V15.724L137.704 9.388H139.756V19H137.506V12.664L132.214 19H130.144ZM152.041 19.126C151.057 19.126 150.181 18.916 149.413 18.496C148.645 18.064 148.039 17.476 147.595 16.732C147.151 15.988 146.929 15.142 146.929 14.194C146.929 13.234 147.151 12.388 147.595 11.656C148.039 10.912 148.645 10.33 149.413 9.91C150.181 9.49 151.057 9.28 152.041 9.28C153.037 9.28 153.919 9.49 154.687 9.91C155.467 10.33 156.073 10.906 156.505 11.638C156.949 12.37 157.171 13.222 157.171 14.194C157.171 15.142 156.949 15.988 156.505 16.732C156.073 17.476 155.467 18.064 154.687 18.496C153.919 18.916 153.037 19.126 152.041 19.126ZM152.041 17.2C152.593 17.2 153.085 17.08 153.517 16.84C153.949 16.6 154.285 16.252 154.525 15.796C154.777 15.34 154.903 14.806 154.903 14.194C154.903 13.57 154.777 13.036 154.525 12.592C154.285 12.136 153.949 11.788 153.517 11.548C153.085 11.308 152.599 11.188 152.059 11.188C151.507 11.188 151.015 11.308 150.583 11.548C150.163 11.788 149.827 12.136 149.575 12.592C149.323 13.036 149.197 13.57 149.197 14.194C149.197 14.806 149.323 15.34 149.575 15.796C149.827 16.252 150.163 16.6 150.583 16.84C151.015 17.08 151.501 17.2 152.041 17.2ZM161.04 19V10.756L161.562 11.296H157.656V9.388H166.656V11.296H162.768L163.29 10.756V19H161.04ZM172.348 19.126C171.28 19.126 170.344 18.916 169.54 18.496C168.748 18.064 168.13 17.476 167.686 16.732C167.254 15.988 167.038 15.142 167.038 14.194C167.038 13.234 167.248 12.388 167.668 11.656C168.1 10.912 168.688 10.33 169.432 9.91C170.188 9.49 171.046 9.28 172.006 9.28C172.942 9.28 173.776 9.484 174.508 9.892C175.24 10.3 175.816 10.876 176.236 11.62C176.656 12.364 176.866 13.24 176.866 14.248C176.866 14.344 176.86 14.452 176.848 14.572C176.848 14.692 176.842 14.806 176.83 14.914H168.82V13.42H175.642L174.76 13.888C174.772 13.336 174.658 12.85 174.418 12.43C174.178 12.01 173.848 11.68 173.428 11.44C173.02 11.2 172.546 11.08 172.006 11.08C171.454 11.08 170.968 11.2 170.548 11.44C170.14 11.68 169.816 12.016 169.576 12.448C169.348 12.868 169.234 13.366 169.234 13.942V14.302C169.234 14.878 169.366 15.388 169.63 15.832C169.894 16.276 170.266 16.618 170.746 16.858C171.226 17.098 171.778 17.218 172.402 17.218C172.942 17.218 173.428 17.134 173.86 16.966C174.292 16.798 174.676 16.534 175.012 16.174L176.218 17.56C175.786 18.064 175.24 18.454 174.58 18.73C173.932 18.994 173.188 19.126 172.348 19.126ZM177.8 18.982L177.908 17.092C177.992 17.104 178.07 17.116 178.142 17.128C178.214 17.14 178.28 17.146 178.34 17.146C178.712 17.146 179 17.032 179.204 16.804C179.408 16.576 179.558 16.27 179.654 15.886C179.762 15.49 179.834 15.052 179.87 14.572C179.918 14.08 179.954 13.588 179.978 13.096L180.14 9.388H187.916V19H185.666V10.684L186.188 11.296H181.616L182.102 10.666L181.976 13.204C181.94 14.056 181.868 14.848 181.76 15.58C181.664 16.3 181.508 16.93 181.292 17.47C181.088 18.01 180.8 18.43 180.428 18.73C180.068 19.03 179.606 19.18 179.042 19.18C178.862 19.18 178.664 19.162 178.448 19.126C178.244 19.09 178.028 19.042 177.8 18.982ZM197.049 19V15.724L197.373 16.102H194.493C193.173 16.102 192.135 15.826 191.379 15.274C190.635 14.71 190.263 13.9 190.263 12.844C190.263 11.716 190.659 10.858 191.451 10.27C192.255 9.682 193.323 9.388 194.655 9.388H199.065V19H197.049ZM190.137 19L192.729 15.328H195.033L192.549 19H190.137ZM197.049 15.004V10.684L197.373 11.278H194.727C194.031 11.278 193.491 11.41 193.107 11.674C192.735 11.926 192.549 12.34 192.549 12.916C192.549 13.996 193.251 14.536 194.655 14.536H197.373L197.049 15.004Z" fill="white"/>
</svg>
